#N canvas 575 263 678 380 10;
#X declare -lib multicatch;
#X declare -path lib/canales;
#X declare -path lib;
#X declare -lib multicatch;
#X declare -path lib;
#X declare -lib multicatch;
#X declare -path libreria;
#X declare -lib multicatch;
#X declare -path libreria;
#X declare -path extra/mmb;
#X declare -path extra/;
#X declare -lib multicatch;
#X declare -path lib;
#X declare -lib multicatch;
#X declare -path lib;
#X declare -lib multicatch;
#X declare -path lib;
#X declare -lib multicatch;
#X declare -path lib;
#X declare -lib multicatch;
#X declare -path lib;
#X declare -lib multicatch;
#X declare -path lib;
#X declare -lib multicatch;
#X declare -path lib;
#X obj 120 -426 cnv 15 100 60 empty empty In/Out 3 10 0 14 -233017
-66577 0;
#X obj -279 -430 import multicatch;
#N canvas 478 185 728 278 io 1;
#X obj 13 205 dac~ 1;
#X obj 13 41 adc~ 1;
#X obj 93 42 adc~ 2;
#X obj 107 206 dac~ 2;
#X text 11 153 OUT;
#X text 11 8 IN;
#X obj -55 40 pink~;
#X obj 173 42 adc~ 3;
#X obj 253 42 adc~ 4;
#X obj 333 42 adc~ 5;
#X obj 413 42 adc~ 6;
#X obj 493 42 adc~ 7;
#X obj 573 42 adc~ 8;
#X obj -56 69 mthrow~ ADC1;
#X obj 93 69 mthrow~ ADC2;
#X obj 173 69 mthrow~ ADC3;
#X obj 253 69 mthrow~ ADC4;
#X obj 333 69 mthrow~ ADC5;
#X obj 413 69 mthrow~ ADC6;
#X obj 493 69 mthrow~ ADC7;
#X obj 572 69 mthrow~ ADC8;
#X obj 106 174 mcatch~ DAC_R;
#X obj 12 174 mcatch~ DAC_L;
#X obj 222 174 mcatch~ ADC1_L;
#X obj 318 174 mcatch~ ADC1_R;
#X connect 2 0 14 0;
#X connect 7 0 15 0;
#X connect 8 0 16 0;
#X connect 9 0 17 0;
#X connect 10 0 18 0;
#X connect 11 0 19 0;
#X connect 12 0 20 0;
#X connect 21 0 3 0;
#X connect 22 0 0 0;
#X restore 124 -402 pd io;
#X obj -135 -431 solo-counter2;
#X obj -279 -338 path lib/canales;
#X obj -279 -358 path lib;
#X obj -282 -270 channel_1_send_1~ CH1 ADC1 MASTER SEND1;
#X text -282 -298 Channels;
#X obj 121 -270 channel_2~ SEND1 SEND1 MASTER;
#X obj 121 -180 channel_2~ MASTER MASTER DAC;
#X text 118 -208 Master;
#X text 118 -298 Sends;
#X obj -279 -378 path extra/mmb;
#X obj -279 -398 path extra/;
#X obj -282 -250 channel_1_send_1~ CH2 ADC2 MASTER SEND1;
#X obj -282 -230 channel_1_send_1~ CH3 ADC3 MASTER SEND1;
#X obj -282 -210 channel_1_send_1~ CH4 ADC4 MASTER SEND1;
#X obj -282 -190 channel_1_send_1~ CH5 ADC5 MASTER SEND1;
#X obj -282 -170 channel_1_send_1~ CH6 ADC6 MASTER SEND1;
#X obj -282 -150 channel_1_send_1~ CH7 ADC7 MASTER SEND1;
#X obj -282 -130 channel_1_send_1~ CH8 ADC8 MASTER SEND1;
