#N canvas 375 181 1029 559 10;
#X declare -lib pdcontainer;
#X declare -lib pdcontainer;
#X declare -lib pdcontainer;
#X declare -lib pdcontainer;
#X declare -lib pdcontainer;
#X declare -lib pdcontainer;
#X obj 142 276 vu 15 120 empty empty -1 -8 0 10 -66577 -1 0 0;
#X obj 159 276 vu 15 120 empty empty -1 -8 0 10 -66577 -1 0 0;
#X obj 153 422 tgl 17 0 empty empty pre 20 9 0 12 -262144 -1 -4160
0 1;
#X text 129 73 CONTROL;
#X obj 213 72 cnv 15 210 120 empty empty Canvas 20 12 0 14 -233017
-66577 0;
#X obj 226 118 symbol \$1;
#X obj 226 97 initbang;
#X msg 226 145 label \$1;
#X obj 215 326 cnv 15 210 190 empty empty State 20 12 0 14 -233017
-66577 0;
#X obj 215 201 cnv 15 210 120 empty empty Ventana_Emergente 20 12 0
14 -233017 -66577 0;
#X msg 233 252 vis \$1;
#X obj 233 273 s pd-editor\$1;
#X obj 221 379 nbx 5 14 -1e+37 1e+37 0 0 empty empty empty 0 -8 0 10
-262144 -1 -1 1 256;
#X obj 221 428 iem_receive;
#X obj 221 458 symbol;
#X obj 226 167 s canvas_set_\$0;
#X obj 221 488 s canvas_name_\$0;
#X obj 288 118 r canvas_name_\$0;
#X msg 221 401 set channel_1_send_1_\$1;
#X obj 221 357 sfruit/instance channel_1_send_1;
#X obj 233 230 r \$0_editor;
#X obj 23 483 s \$0_editor;
#N canvas 426 421 937 319 editor\$1 0;
#X obj 9 223 s /\$1/eq_params;
#X obj 9 -38 metrum 50 1;
#X obj 9 15 gui.eq7.mmb \$1;
#X obj 9 -9 tabdump /\$1/spectrum;
#X connect 1 0 3 0;
#X connect 2 0 0 0;
#X connect 3 0 2 0;
#X restore 233 296 pd editor\$1;
#X obj -9 198 r canvas_name_\$0;
#X obj 153 441 ui_editor;
#X obj 103 273 ui_fader \$1;
#X obj 102 403 ui_pan \$1;
#X obj 100 224 ui_send1 \$1;
#X obj 153 402 ui_fase \$1;
#X obj 152 480 ui_solo \$1;
#N canvas 1 92 450 300 (subpatch) 0;
#X array /CH2/eq_plot 556 float 0;
#X coords 0 1 554 -1 100 70 1 0 0;
#X restore 101 117 graph;
#N canvas 1 82 450 300 (subpatch) 0;
#X array /\$1/spectrum 256 float 0;
#X coords 0 1 256 0 100 70 1 0 0;
#X restore 101 117 graph;
#X obj 153 461 ui_mute \$1;
#X obj 480 195 iem_receive /\$1/vuL_control;
#X obj 460 248 iem_receive /\$1/vuR_control;
#X obj 460 84 r canvas_name_\$0;
#X obj 460 112 unsymbol;
#X obj 460 137 list;
#X msg 460 222 set /\$1/vuR_control;
#X msg 480 169 set /\$1/vuL_control;
#X obj 508 498 s;
#X obj 544 448 loadbang;
#X obj 508 328 r canvas_name_\$0;
#X obj 508 356 t s s;
#X msg 450 466 const \$1;
#X obj 443 441 nbx 5 14 -1e+37 1e+37 0 0 empty empty empty 0 -8 0 10
-262144 -1 -1 0.07 256;
#X obj 523 399 makesymbol /%s/eq_plot;
#X obj 544 470 symbol /\$1/eq_plot;
#X msg 508 421 rename /\$1/eq_plot;
#X obj 101 101 cnv 15 100 20 empty canvas_set_\$0 CH1 10 10 0 14 -233017
-66577 0;
#X connect 5 0 7 0;
#X connect 6 0 5 0;
#X connect 7 0 15 0;
#X connect 10 0 11 0;
#X connect 12 0 18 0;
#X connect 13 0 14 0;
#X connect 14 0 16 0;
#X connect 17 0 7 0;
#X connect 18 0 13 0;
#X connect 19 0 12 0;
#X connect 20 0 10 0;
#X connect 23 0 25 0;
#X connect 23 0 26 0;
#X connect 23 0 28 0;
#X connect 23 0 29 0;
#X connect 23 0 27 0;
#X connect 23 0 32 0;
#X connect 24 0 21 0;
#X connect 35 0 36 0;
#X connect 36 0 37 0;
#X connect 37 0 39 0;
#X connect 37 0 38 0;
#X connect 38 0 34 0;
#X connect 39 0 33 0;
#X connect 41 0 47 0;
#X connect 42 0 43 0;
#X connect 43 0 46 0;
#X connect 43 1 48 0;
#X connect 44 0 40 0;
#X connect 45 0 44 0;
#X connect 46 0 40 1;
#X connect 47 0 40 1;
#X connect 48 0 40 0;
#X coords 0 -1 1 1 102 400 2 100 100;
